<?xml version="1.0" standalone="no"?>
<!DOCTYPE svg PUBLIC "-//W3C//DTD SVG 20010904//EN"
 "http://www.w3.org/TR/2001/REC-SVG-20010904/DTD/svg10.dtd">
<svg version="1.0" xmlns="http://www.w3.org/2000/svg"
 width="225.000000pt" height="225.000000pt" viewBox="0 0 225.000000 225.000000"
 preserveAspectRatio="xMidYMid meet">

<g transform="translate(0.000000,225.000000) scale(0.100000,-0.100000)"
fill="#000000" stroke="none">
<path d="M1923 2243 c15 -2 39 -2 55 0 15 2 2 4 -28 4 -30 0 -43 -2 -27 -4z"/>
<path d="M2239 1248 c-1 -552 0 -1013 1 -1025 1 -12 -3 -30 -9 -40 -9 -16 -11
-14 -12 12 -2 17 -3 37 -5 45 -1 8 -2 25 -3 36 -1 18 -86 160 -121 201 -6 7
-15 23 -21 37 -21 45 -240 249 -305 283 -34 18 -66 38 -72 45 -5 7 -12 69 -14
138 -4 119 -5 127 -33 170 -57 85 -146 200 -156 200 -18 0 -31 54 -33 135 -1
44 -3 85 -5 90 -10 30 1 62 29 80 17 11 45 40 63 65 29 41 32 51 32 120 0 61
-5 83 -25 120 -48 85 -184 167 -328 197 -155 32 -429 1 -551 -63 -89 -47 -154
-130 -166 -214 -8 -55 24 -152 58 -175 72 -50 105 -68 129 -67 25 1 33 -17 15
-34 -9 -10 -9 -26 0 -21 5 3 9 -9 10 -26 l2 -32 -22 27 c-16 19 -26 25 -36 18
-12 -7 -13 -13 -2 -36 10 -22 14 -25 22 -13 6 10 9 5 9 -18 0 -26 4 -33 20
-33 23 0 25 -9 6 -35 -8 -11 -19 -16 -30 -12 -11 5 -16 1 -16 -13 0 -13 -12
-26 -34 -37 -19 -9 -39 -26 -46 -38 -6 -12 -43 -37 -82 -56 -85 -41 -158 -114
-158 -158 0 -16 11 -53 25 -83 l25 -53 -35 -16 c-22 -10 -47 -34 -65 -62 -21
-34 -43 -52 -84 -72 -71 -33 -131 -84 -178 -149 l-37 -51 -1 -317 0 -318 1125
0 1125 0 0 1125 c0 619 -2 1125 -5 1125 -3 0 -5 -451 -6 -1002z m-1079 492
c30 0 39 -4 45 -22 4 -13 9 -27 11 -33 1 -5 6 -27 10 -47 8 -46 -8 -51 -31
-10 l-15 27 1 -25 c3 -36 -10 -60 -28 -53 -12 5 -13 2 -6 -13 13 -26 16 -167
3 -159 -6 3 -10 23 -10 44 0 21 -7 53 -16 71 -13 25 -14 34 -4 40 20 13 25 93
6 109 -14 12 -16 11 -16 -6 0 -10 6 -25 12 -31 10 -10 10 -15 -2 -22 -8 -6
-22 -7 -30 -4 -8 3 -25 7 -38 9 -12 1 -30 9 -40 17 -9 9 -33 15 -54 14 -37 -2
-50 7 -25 17 9 4 8 8 -3 17 -12 10 -11 11 7 7 16 -4 24 1 28 14 7 22 108 52
143 43 8 -2 31 -4 52 -4z m-154 -175 l29 -15 -42 0 c-40 0 -60 10 -46 24 10
10 29 7 59 -9z m9 -87 c-34 -10 -95 -2 -95 12 0 13 17 13 25 0 10 -15 42 -12
49 5 5 13 10 14 28 4 23 -12 23 -12 -7 -21z m62 0 c-3 -8 -6 -5 -6 6 -1 11 2
17 5 13 3 -3 4 -12 1 -19z m277 7 c4 -10 -1 -15 -14 -15 -13 0 -18 5 -14 15 4
8 10 15 14 15 4 0 10 -7 14 -15z m-77 -1 c-3 -3 -12 -4 -19 -1 -8 3 -5 6 6 6
11 1 17 -2 13 -5z m9 -27 c4 -4 2 -7 -5 -7 -7 0 -9 -5 -5 -11 4 -8 0 -7 -15 1
-12 6 -19 15 -16 20 6 9 31 8 41 -3z m-281 -8 c-7 -11 -35 -12 -35 -1 0 4 9 8
20 9 11 1 18 -2 15 -8z m47 -23 c-19 -32 -19 -35 -4 -41 16 -6 16 -7 -1 -16
-9 -6 -28 -20 -40 -32 -58 -55 -64 -57 -83 -36 -13 15 -15 22 -6 31 16 16 15
28 -3 28 -19 0 -20 24 -1 39 7 6 33 13 57 16 24 2 54 13 68 24 35 27 36 26 13
-13z m-335 -48 c-3 -7 -5 -2 -5 12 0 14 2 19 5 13 2 -7 2 -19 0 -25z m467 -60
c-7 -11 -52 -10 -59 2 -3 5 0 18 7 29 12 19 12 19 34 -2 12 -12 20 -25 18 -29z
m-429 -117 c-3 -5 -1 -12 5 -16 6 -4 8 -10 5 -15 -3 -4 2 -11 10 -14 13 -5 13
-9 3 -26 -7 -11 -21 -20 -31 -20 -10 0 -15 5 -12 10 3 6 2 10 -3 10 -11 0 -10
50 1 68 5 6 13 12 18 12 6 0 8 -4 4 -9z m427 -44 c10 -7 10 -10 -1 -14 -11 -5
-11 -7 0 -14 10 -6 7 -9 -11 -10 -14 0 -20 -3 -13 -5 24 -10 -16 -41 -48 -36
-25 4 -28 7 -22 30 4 17 2 23 -6 18 -12 -8 -16 26 -4 38 10 9 90 4 105 -7z
m-202 -139 c0 -3 14 -11 30 -17 27 -9 35 -20 31 -44 0 -4 2 -6 6 -6 23 4 31
-4 35 -36 2 -19 0 -35 -4 -35 -4 0 -10 -11 -14 -25 -3 -14 -9 -25 -14 -25 -4
0 -15 -16 -26 -35 -21 -40 -17 -39 -61 -23 -21 8 -33 19 -33 31 0 10 5 15 10
12 6 -3 10 -1 10 6 0 6 -8 9 -20 6 -16 -4 -20 0 -20 19 0 13 -4 24 -10 24 -12
0 -63 80 -56 87 3 3 12 0 21 -7 8 -7 15 -9 15 -4 0 4 7 -1 15 -12 13 -17 14
-17 15 -1 0 9 -4 17 -10 17 -14 0 -12 48 3 65 12 14 77 17 77 3z m325 -46 c1
-9 7 -27 14 -40 13 -25 8 -57 -8 -48 -5 4 -12 0 -15 -6 -3 -7 -3 -3 -1 8 4 14
0 24 -9 27 -10 4 -13 1 -9 -9 3 -10 0 -12 -10 -8 -9 3 -18 12 -21 20 -3 8 -2
13 2 11 4 -3 16 -1 27 4 l20 8 -20 1 c-11 2 -23 2 -27 1 -13 -2 -9 26 5 38 10
8 17 7 26 -2 7 -6 12 -7 11 -2 -2 6 -2 14 -1 19 2 15 14 -2 16 -22z m-610
-830 c-10 -10 -16 -12 -13 -7 3 6 8 19 13 30 5 14 9 16 12 7 3 -8 -3 -21 -12
-30z m-24 -55 c-8 -8 -11 -7 -11 4 0 20 13 34 18 19 3 -7 -1 -17 -7 -23z"/>
</g>
</svg>
